<svg viewBox="0 0 20 20">
  <path fill="currentColor" d="M17.696,9.368H2.305c-0.189,0-0.367,0.092-0.478,0.245c-0.11,0.155-0.141,0.352-0.08,0.532l2.334,6.918c0.081,0.238,0.305,0.4,0.556,0.4h10.735c0.253,0,0.478-0.162,0.557-0.402l2.323-6.917c0.062-0.179,0.03-0.376-0.079-0.531C18.062,9.459,17.886,9.368,17.696,9.368z M14.95,16.287H5.062l-1.938-5.743h13.753L14.95,16.287z"></path>
  <path fill="currentColor" d="M6.345,7.369c0.325,0,0.588-0.263,0.588-0.588c0-1.691,1.376-3.067,3.067-3.067c1.691,0,3.067,1.376,3.067,3.067c0,0.325,0.264,0.588,0.588,0.588c0.326,0,0.589-0.263,0.589-0.588c0-2.34-1.904-4.243-4.244-4.243c-2.34,0-4.244,1.903-4.244,4.243C5.757,7.106,6.02,7.369,6.345,7.369z"></path>
</svg>
