<svg width="18" height="13" viewBox="0 0 18 13" fill="none" xmlns="http://www.w3.org/2000/svg">
<path d="M13.8223 5.23203L8.43764 0.145324C8.27933 -0.00388594 8.0521 -0.0423188 7.85717 0.0492419C7.66332 0.140803 7.5384 0.343141 7.5384 0.565825V3.4076C3.67652 3.63481 0.725722 6.3025 0.279871 10.0508L0.00417646 12.3636C-0.0270546 12.627 0.119408 12.8779 0.358487 12.9661C0.417719 12.9887 0.478027 13 0.538335 13C0.71926 13 0.8948 12.9028 0.994955 12.7344L1.53665 11.8233C2.61143 10.0192 4.76207 7.91329 7.28748 7.91329H7.5384V10.7392C7.5384 10.9619 7.66332 11.1643 7.85717 11.2558C8.0521 11.344 8.27825 11.3101 8.43656 11.1597L13.8212 6.07303C13.9343 5.96565 14 5.81305 14 5.65253C14 5.49202 13.9343 5.33942 13.8223 5.23203Z" fill="white"/>
</svg>
