<svg xmlns="http://www.w3.org/2000/svg" viewBox="0 0 24 24"><path d="M11.66 12.14a.692.692 0 00-.56-.3c-.51-.03-.87.37-.87 1.04a1.092 1.092 0 00.2.57.773.773 0 001.24-.01 1.162 1.162 0 00-.01-1.3zm0 0a.692.692 0 00-.56-.3c-.51-.03-.87.37-.87 1.04a1.092 1.092 0 00.2.57.773.773 0 001.24-.01 1.162 1.162 0 00-.01-1.3zM12 0a12 12 0 1012 12A11.997 11.997 0 0012 0zM8.5 14.72c-.76.01-1.52 0-2.28 0-.22 0-.45.01-.66 0-.28-.02-.55-.07-.68-.36a.693.693 0 01.14-.76c.73-.93 1.46-1.86 2.19-2.78a1.934 1.934 0 00.13-.17c-.04-.08-.12-.04-.17-.04-.51-.01-1.02 0-1.53-.01a1.342 1.342 0 01-.35-.04.492.492 0 01-.01-.96 1.343 1.343 0 01.35-.04q1.26-.015 2.52 0a1.296 1.296 0 01.44.05.514.514 0 01.33.72 3.136 3.136 0 01-.47.73c-.62.78-1.23 1.56-1.85 2.35-.05.06-.1.12-.18.22.72 0 1.39 0 2.05.01.38 0 .58.16.61.45.05.38-.17.62-.58.63zm4.55-.52a.561.561 0 01-.39.54.579.579 0 01-.66-.19c-.08-.1-.11-.11-.22-.02a1.469 1.469 0 01-1.44.24 1.863 1.863 0 01-1.28-1.73 1.963 1.963 0 01.96-2.06 1.5 1.5 0 011.88.17.75.75 0 01.42-.32.585.585 0 01.73.54c.01.95.01 1.89 0 2.83zm1.7-.04a.607.607 0 01-.76.6.617.617 0 01-.42-.61V9.74a.567.567 0 01.58-.6.56.56 0 01.6.61c.01.74.01 1.47.01 2.21 0 .73 0 1.47-.01 2.2zm2.6.69a1.925 1.925 0 01-2.18-1.95 2.008 2.008 0 114.01-.2 1.975 1.975 0 01-1.83 2.15zm-.13-3.01c-.51-.03-.86.36-.86.95a.993.993 0 00.2.66.776.776 0 001.22.01 1.16 1.16 0 000-1.32.692.692 0 00-.56-.3zm-6.12 0c-.51-.03-.87.37-.87 1.04a1.092 1.092 0 00.2.57.773.773 0 001.24-.01 1.162 1.162 0 00-.01-1.3.692.692 0 00-.56-.3zm.56.3a.692.692 0 00-.56-.3c-.51-.03-.87.37-.87 1.04a1.092 1.092 0 00.2.57.773.773 0 001.24-.01 1.162 1.162 0 00-.01-1.3zm0 0a.692.692 0 00-.56-.3c-.51-.03-.87.37-.87 1.04a1.092 1.092 0 00.2.57.773.773 0 001.24-.01 1.162 1.162 0 00-.01-1.3z" fill="currentColor"/></svg>
