<svg xmlns="http://www.w3.org/2000/svg" xmlns:xlink="http://www.w3.org/1999/xlink" x="0px" y="0px"
	 viewBox="0 0 512 512" style="enable-background:new 0 0 512 512;" xml:space="preserve">
<g>
	<path d="M256,460.8c113.13,0,204.8-91.7,204.8-204.8S369.13,51.2,256,51.2C142.9,51.2,51.2,142.9,51.2,256S142.9,460.8,256,460.8z
		 M256,512C114.63,512,0,397.38,0,256C0,114.6,114.63,0,256,0c141.4,0,256,114.6,256,256C512,397.38,397.4,512,256,512z"/>
	<path d="M352,243.2v-32h-16v32h-32v16h32v32h16v-32h32v-16H352z M208,243.2v32h45.27c-6.8,19.15-24.92,31.97-45.27,32
		c-26.48-0.03-47.95-21.5-48-48c0-26.48,21.55-48,48-48c11.48,0,22.55,4.1,31.1,11.6l21.02-24.15
		c-14.45-12.57-32.95-19.47-52.13-19.45c-44.15,0.05-79.93,35.85-80,80c0.07,44.15,35.85,79.95,80,80c44.18-0.05,79.95-35.85,80-80
		v-16H208z"/>
</g>
</svg>
