<?xml version="1.0" encoding="utf-8"?>
<!-- Generator: Adobe Illustrator 24.1.1, SVG Export Plug-In . SVG Version: 6.00 Build 0)  -->
<svg version="1.1" id="Layer_1" xmlns="http://www.w3.org/2000/svg" xmlns:xlink="http://www.w3.org/1999/xlink" x="0px" y="0px"
	 viewBox="0 0 512 512" style="enable-background:new 0 0 512 512;" xml:space="preserve">
<g id="XMLID_1_">
	<polygon id="XMLID_3_" points="8.4,8.4 8.4,15.8 247.6,15.8 247.6,496.2 15.8,496.2 15.8,8.4 8.4,8.4 8.4,15.8 8.4,8.4 0,8.4 
		0,512 264.4,512 264.4,0 0,0 0,8.4 	"/>
	<polygon id="XMLID_4_" points="256,8.4 256,15.8 496.2,15.8 496.2,496.2 264.4,496.2 264.4,8.4 256,8.4 256,15.8 256,8.4 
		247.6,8.4 247.6,512 512,512 512,0 247.6,0 247.6,8.4 	"/>
</g>
</svg>
