<?xml version="1.0" encoding="utf-8"?>
<!-- Generator: Adobe Illustrator 24.1.1, SVG Export Plug-In . SVG Version: 6.00 Build 0)  -->
<svg version="1.1" xmlns="http://www.w3.org/2000/svg" xmlns:xlink="http://www.w3.org/1999/xlink" x="0px" y="0px"
	 viewBox="0 0 512 512" style="enable-background:new 0 0 512 512;" xml:space="preserve">
<g id="XMLID_1_">
	<polygon id="XMLID_3_" points="8.4,8.4 8.4,15.8 160.1,15.8 160.1,496.2 15.8,496.2 15.8,8.4 8.4,8.4 8.4,15.8 8.4,8.4 0,8.4
		0,512 175.9,512 175.9,0 0,0 0,8.4 	"/>
	<polygon id="XMLID_4_" points="344.4,8.4 344.4,15.8 496.2,15.8 496.2,496.2 351.9,496.2 351.9,8.4 344.4,8.4 344.4,15.8
		344.4,8.4 336.1,8.4 336.1,512 512,512 512,0 336.1,0 336.1,8.4 	"/>
	<polygon id="XMLID_5_" points="167.6,8.4 167.6,15.8 336.1,15.8 336.1,496.2 175.9,496.2 175.9,8.4 167.6,8.4 167.6,15.8
		167.6,8.4 160.1,8.4 160.1,512 351.9,512 351.9,0 160.1,0 160.1,8.4 	"/>
</g>
</svg>
