<svg xmlns="http://www.w3.org/2000/svg" version="1.1">
    <svg id="page_title" enable-background="new 0 0 24 24" height="20" viewBox="0 0 24 24" width="20"
         xmlns="http://www.w3.org/2000/svg">
        <g>
            <path d="m12.25 12c-.414 0-.75-.336-.75-.75v-.75h-7v.75c0 .414-.336.75-.75.75s-.75-.336-.75-.75v-1.5c0-.414.336-.75.75-.75h8.5c.414 0 .75.336.75.75v1.5c0 .414-.336.75-.75.75z"/>
        </g>
        <g>
            <path d="m8 18.75c-.414 0-.75-.336-.75-.75v-8c0-.414.336-.75.75-.75s.75.336.75.75v8c0 .414-.336.75-.75.75z"/>
        </g>
        <g>
            <path d="m9.25 19h-2.5c-.414 0-.75-.336-.75-.75s.336-.75.75-.75h2.5c.414 0 .75.336.75.75s-.336.75-.75.75z"/>
        </g>
        <g>
            <path d="m20.25 10.5h-4.5c-.414 0-.75-.336-.75-.75s.336-.75.75-.75h4.5c.414 0 .75.336.75.75s-.336.75-.75.75z"/>
        </g>
        <g>
            <path d="m20.25 14.5h-4.5c-.414 0-.75-.336-.75-.75s.336-.75.75-.75h4.5c.414 0 .75.336.75.75s-.336.75-.75.75z"/>
        </g>
        <g>
            <path d="m20.25 18.5h-4.5c-.414 0-.75-.336-.75-.75s.336-.75.75-.75h4.5c.414 0 .75.336.75.75s-.336.75-.75.75z"/>
        </g>
        <g>
            <path d="m21.25 23h-18.5c-1.517 0-2.75-1.233-2.75-2.75v-16.5c0-1.517 1.233-2.75 2.75-2.75h18.5c1.517 0 2.75 1.233 2.75 2.75v16.5c0 1.517-1.233 2.75-2.75 2.75zm-18.5-20.5c-.689 0-1.25.561-1.25 1.25v16.5c0 .689.561 1.25 1.25 1.25h18.5c.689 0 1.25-.561 1.25-1.25v-16.5c0-.689-.561-1.25-1.25-1.25z"/>
        </g>
        <g>
            <path d="m23.25 6h-22.5c-.414 0-.75-.336-.75-.75s.336-.75.75-.75h22.5c.414 0 .75.336.75.75s-.336.75-.75.75z"/>
        </g>
    </svg>
    <svg id="page_content" height="20" viewBox="0 0 512 512" width="20" xmlns="http://www.w3.org/2000/svg">
        <path d="m100 113c0-11.046875 8.953125-20 20-20h272c11.046875 0 20 8.953125 20 20s-8.953125 20-20 20h-272c-11.046875 0-20-8.953125-20-20zm312 80c0-11.046875-8.953125-20-20-20h-272c-11.046875 0-20 8.953125-20 20s8.953125 20 20 20h272c11.046875 0 20-8.953125 20-20zm-292 60c-11.046875 0-20 8.953125-20 20s8.953125 20 20 20h92c11.046875 0 20-8.953125 20-20s-8.953125-20-20-20zm374.441406 156.589844c23.378906 23.378906 23.378906 61.441406-.015625 84.835937-11.695312 11.695313-27.0625 17.546875-42.425781 17.546875s-30.730469-5.851562-42.425781-17.546875l-109.367188-109.570312c-2.4375-2.441407-4.199219-5.46875-5.117187-8.792969l-22.363282-80.722656c-1.945312-7.03125.085938-14.5625 5.308594-19.65625 5.21875-5.089844 12.796875-6.941406 19.777344-4.820313l78.726562 23.914063c3.152344.957031 6.019532 2.675781 8.34375 5.007812zm-162.210937-49.273438 73.515625 73.652344 28.289062-28.289062-73.925781-74.089844-39.128906-11.886719zm133.910156 77.542969-3.851563-3.863281-28.285156 28.285156 3.867188 3.875c7.785156 7.785156 20.472656 7.785156 28.269531-.015625 7.800781-7.796875 7.800781-20.484375 0-28.28125zm-34.140625-437.859375h-352c-44.113281 0-80 35.886719-80 80v352c0 44.113281 35.886719 80 80 80h245c11.046875 0 20-8.953125 20-20s-8.953125-20-20-20h-245c-22.054688 0-40-17.945312-40-40v-352c0-22.054688 17.945312-40 40-40h352c22.054688 0 40 17.945312 40 40v246c0 11.046875 8.953125 20 20 20s20-8.953125 20-20v-246c0-44.113281-35.886719-80-80-80zm0 0"/>
    </svg>

    <svg id="accordions" xmlns="http://www.w3.org/2000/svg" xmlns:xlink="http://www.w3.org/1999/xlink" width="20"
         height="20" viewBox="0 0 16 16">
        <path d="M0 4v8h16v-8h-16zM15 11h-14v-4h14v4z"></path>
        <path d="M0 0h16v3h-16v-3z"></path>
        <path d="M0 13h16v3h-16v-3z"></path>
    </svg>

    <svg id="breadcrumbs" xmlns="http://www.w3.org/2000/svg" xmlns:xlink="http://www.w3.org/1999/xlink" x="0px" y="0px"
         viewBox="0 0 334.505 334.505" style="enable-background:new 0 0 334.505 334.505;" xml:space="preserve"
         width="20" height="20">
<g>
	<g>
		<path d="M332.406,162.328l-98.98-95.048c-8.067-7.75-21.187-7.748-29.254-0.002c-4,3.838-6.2,8.963-6.2,14.428
			c0,5.465,2.2,10.588,6.2,14.427v-0.002l74.061,71.12l-74.066,71.117c-3.994,3.842-6.193,8.97-6.193,14.437
			c0,5.463,2.2,10.585,6.2,14.423c4.033,3.872,9.332,5.81,14.626,5.808c5.294,0,10.593-1.937,14.619-5.811l98.987-95.049
			c1.34-1.287,2.099-3.065,2.099-4.924C334.505,165.394,333.746,163.615,332.406,162.328z M223.961,257.385
			c-2.794,2.695-7.526,2.683-10.334-0.002c-1.287-1.241-2-2.867-2-4.581c0-1.715,0.713-3.345,2-4.588l79.186-76.034
			c1.34-1.289,2.099-3.067,2.099-4.925s-0.759-3.637-2.099-4.924l-79.186-76.044v-0.002c-1.287-1.239-2-2.864-2-4.577
			c0-1.715,0.713-3.342,2-4.581c1.399-1.347,3.287-2.021,5.173-2.021c1.881,0,3.767,0.672,5.166,2.019l93.862,90.129
			L223.961,257.385z"/>
	</g>
</g>
        <g>
	<g>
		<path d="M230.006,162.328l-98.98-95.051c-8.067-7.743-21.187-7.745-29.254,0.002c-4,3.838-6.2,8.963-6.2,14.428
			c0,5.465,2.2,10.588,6.2,14.427v-0.002l74.061,71.12l-74.066,71.117c-3.994,3.842-6.193,8.97-6.193,14.437
			c0,5.463,2.2,10.585,6.2,14.423c4.033,3.871,9.327,5.806,14.626,5.806c5.301,0,10.593-1.935,14.626-5.81l98.98-95.049
			c1.34-1.287,2.099-3.065,2.099-4.924C232.105,165.394,231.346,163.615,230.006,162.328z M121.573,257.381
			c-2.799,2.693-7.545,2.691-10.346,0.002c-1.287-1.241-2-2.867-2-4.581c0-1.715,0.713-3.345,2-4.588l79.186-76.034
			c1.34-1.289,2.099-3.067,2.099-4.925s-0.759-3.637-2.099-4.924l-79.186-76.044v-0.002c-1.287-1.239-2-2.864-2-4.577
			c0-1.715,0.713-3.342,2-4.581c1.399-1.347,3.287-2.021,5.173-2.021c1.888,0,3.773,0.672,5.175,2.017l93.853,90.127
			L121.573,257.381z"/>
	</g>
</g>
        <g>
        <g>
		<path d="M134.434,162.328l-98.98-95.053c-8.067-7.738-21.2-7.731-29.254,0.003C2.2,71.117,0,76.242,0,81.707
			c0,5.465,2.2,10.588,6.199,14.427v-0.002l74.061,71.12L6.194,238.369C2.2,242.211,0,247.339,0,252.806
			c0,5.463,2.2,10.585,6.2,14.423c4.026,3.869,9.325,5.804,14.619,5.803c5.301,0,10.6-1.935,14.635-5.806l98.98-95.049
			c1.34-1.287,2.099-3.065,2.099-4.924C136.533,165.394,135.774,163.615,134.434,162.328z M25.999,257.378
			c-2.852,2.737-7.492,2.737-10.346,0.003c-1.287-1.241-2-2.867-2-4.581c0-1.715,0.713-3.345,2-4.588l79.186-76.034
			c1.34-1.289,2.099-3.067,2.099-4.925c0-1.859-0.759-3.637-2.099-4.924L15.654,86.286v-0.002c-1.287-1.239-2-2.864-2-4.577
			c0-1.715,0.713-3.342,2-4.581c1.427-1.369,3.299-2.051,5.173-2.051s3.746,0.684,5.173,2.051l93.855,90.126L25.999,257.378z"/>
	</g>
</svg>


    <svg id="category_grid" xmlns="http://www.w3.org/2000/svg" xmlns:xlink="http://www.w3.org/1999/xlink" x="0px"
         y="0px"
         viewBox="0 0 512 512" style="enable-background:new 0 0 512 512;" xml:space="preserve" width="20" height="20">
<g>
	<g>
		<path d="M467,331h-15v-15c0-24.813-20.187-45-45-45H271v-30c14.095,0,30.95,0,45,0c8.284,0,15-6.716,15-15s-6.716-15-15-15h-15
			v-30h45c24.813,0,45-20.187,45-45V45c0-24.813-20.187-45-45-45H166c-24.813,0-45,20.187-45,45v91c0,24.813,20.187,45,45,45h45v30
			h-15c-8.284,0-15,6.716-15,15s6.716,15,15,15c14.05,0,30.905,0,45,0v30H105c-24.813,0-45,20.187-45,45v15H45
			c-24.813,0-45,20.187-45,45v30c0,24.813,20.187,45,45,45h15v31H45c-8.284,0-15,6.716-15,15s6.716,15,15,15h60
			c8.284,0,15-6.716,15-15s-6.716-15-15-15H90v-31h15c24.813,0,45-20.187,45-45v-30c0-24.813-20.187-45-45-45H90v-15
			c0-8.271,6.729-15,15-15h136v30h-15c-24.813,0-45,20.187-45,45v30c0,24.813,20.187,45,45,45h15v31h-15c-8.284,0-15,6.716-15,15
			s6.716,15,15,15h60c8.284,0,15-6.716,15-15s-6.716-15-15-15h-15v-31h15c24.813,0,45-20.187,45-45v-30c0-24.813-20.187-45-45-45
			h-15v-30h136c8.271,0,15,6.729,15,15v15h-15c-24.813,0-45,20.187-45,45v30c0,24.813,20.187,45,45,45h15v31h-15
			c-8.284,0-15,6.716-15,15s6.716,15,15,15h60c8.284,0,15-6.716,15-15s-6.716-15-15-15h-15v-31h15c24.813,0,45-20.187,45-45v-30
			C512,351.187,491.813,331,467,331z M105,361c8.271,0,15,6.729,15,15v30c0,8.271-6.729,15-15,15H45c-8.271,0-15-6.729-15-15v-30
			c0-8.271,6.729-15,15-15H105z M166,151c-8.271,0-15-6.729-15-15V45c0-8.271,6.729-15,15-15h180c8.271,0,15,6.729,15,15v91
			c0,8.271-6.729,15-15,15C309.96,151,201.911,151,166,151z M286,361c8.271,0,15,6.729,15,15v30c0,8.271-6.729,15-15,15h-60
			c-8.271,0-15-6.729-15-15v-30c0-8.271,6.729-15,15-15H286z M241,211v-30h30v30H241z M482,406c0,8.271-6.729,15-15,15h-60
			c-8.271,0-15-6.729-15-15v-30c0-8.271,6.729-15,15-15h60c8.271,0,15,6.729,15,15V406z"/>
	</g>
</g>
</svg>

    <svg id="contact_section" height="20" viewBox="0 0 512 512" width="20" xmlns="http://www.w3.org/2000/svg">
        <g>
            <g>
                <path d="M256,0C153.755,0,70.573,83.182,70.573,185.426c0,126.888,165.939,313.167,173.004,321.035
			c6.636,7.391,18.222,7.378,24.846,0c7.065-7.868,173.004-194.147,173.004-321.035C441.425,83.182,358.244,0,256,0z M256,278.719
			c-51.442,0-93.292-41.851-93.292-93.293S204.559,92.134,256,92.134s93.291,41.851,93.291,93.293S307.441,278.719,256,278.719z"/>
            </g>
        </g>
    </svg>

    <svg id="counters" enable-background="new 0 0 24 24" height="20" viewBox="0 0 24 24" width="20"
         xmlns="http://www.w3.org/2000/svg">
        <path d="m21.5 24h-19c-1.379 0-2.5-1.122-2.5-2.5v-19c0-1.378 1.121-2.5 2.5-2.5h19c1.379 0 2.5 1.122 2.5 2.5v19c0 1.378-1.121 2.5-2.5 2.5zm-19-23c-.827 0-1.5.673-1.5 1.5v19c0 .827.673 1.5 1.5 1.5h19c.827 0 1.5-.673 1.5-1.5v-19c0-.827-.673-1.5-1.5-1.5z"/>
        <path d="m23.5 18h-23c-.276 0-.5-.224-.5-.5s.224-.5.5-.5h23c.276 0 .5.224.5.5s-.224.5-.5.5z"/>
        <path d="m20.5 21h-17c-.276 0-.5-.224-.5-.5s.224-.5.5-.5h17c.276 0 .5.224.5.5s-.224.5-.5.5z"/>
        <path d="m8.5 22c-.276 0-.5-.224-.5-.5v-2c0-.276.224-.5.5-.5s.5.224.5.5v2c0 .276-.224.5-.5.5z"/>
        <path d="m7 13c-.276 0-.5-.224-.5-.5v-6c0-.276.224-.5.5-.5s.5.224.5.5v6c0 .276-.224.5-.5.5z"/>
        <path d="m12 13h-3c-.276 0-.5-.224-.5-.5v-1c0-1.378 1.121-2.5 2.5-2.5.275 0 .5-.224.5-.5v-1c0-.276-.225-.5-.5-.5h-2c-.276 0-.5-.224-.5-.5s.224-.5.5-.5h2c.827 0 1.5.673 1.5 1.5v1c0 .827-.673 1.5-1.5 1.5s-1.5.673-1.5 1.5v.5h2.5c.276 0 .5.224.5.5s-.224.5-.5.5z"/>
        <path d="m16 13h-2c-.276 0-.5-.224-.5-.5s.224-.5.5-.5h2c.275 0 .5-.224.5-.5v-1c0-.276-.225-.5-.5-.5h-2c-.276 0-.5-.224-.5-.5s.224-.5.5-.5h2c.827 0 1.5.673 1.5 1.5v1c0 .827-.673 1.5-1.5 1.5z"/>
        <path d="m16 10h-2c-.276 0-.5-.224-.5-.5s.224-.5.5-.5h2c.275 0 .5-.224.5-.5v-1c0-.276-.225-.5-.5-.5h-2c-.276 0-.5-.224-.5-.5s.224-.5.5-.5h2c.827 0 1.5.673 1.5 1.5v1c0 .827-.673 1.5-1.5 1.5z"/>
    </svg>

    <svg id="hero_slider" enable-background="new 0 0 24 24" height="20" viewBox="0 0 24 24" width="20"
         xmlns="http://www.w3.org/2000/svg">
        <circle cx="7" cy="18" r="1"/>
        <path d="m7.707 12.293c.391.391.391 1.023 0 1.414-.195.195-.451.293-.707.293s-.512-.098-.707-.293l-3-3c-.391-.391-.391-1.023 0-1.414l3-3c.391-.391 1.023-.391 1.414 0s.391 1.023 0 1.414l-2.293 2.293z"/>
        <circle cx="12" cy="18" r="1"/>
        <circle cx="17" cy="18" r="1"/>
        <path d="m20.707 10.707-3 3c-.195.195-.451.293-.707.293s-.512-.098-.707-.293c-.391-.391-.391-1.023 0-1.414l2.293-2.293-2.293-2.293c-.391-.391-.391-1.023 0-1.414s1.023-.391 1.414 0l3 3c.391.391.391 1.023 0 1.414z"/>
        <path d="m21 24h-18c-1.654 0-3-1.346-3-3v-18c0-1.654 1.346-3 3-3h18c1.654 0 3 1.346 3 3v18c0 1.654-1.346 3-3 3zm-18-22c-.552 0-1 .449-1 1v18c0 .551.448 1 1 1h18c.552 0 1-.449 1-1v-18c0-.551-.448-1-1-1z"/>
    </svg>

    <svg id="image_gallery" height="20" viewBox="1 -47 511.999 511" width="20" xmlns="http://www.w3.org/2000/svg">
        <path d="m469.488281 84.417969h-4.390625c-2.570312-22.023438-20.292968-39.484375-42.441406-41.621094-2.542969-23.742187-22.683594-42.296875-47.085938-42.296875h-302.21875c-40.445312 0-73.351562 32.90625-73.351562 73.347656v211.902344c0 24.574219 18.804688 44.828125 42.773438 47.144531 2.515624 23.488281 22.261718 41.886719 46.3125 42.273438.0625 4.167969.714843 8.191406 1.898437 11.988281 5.386719 17.292969 21.550781 29.882812 40.59375 29.882812h337.910156c23.441407 0 42.511719-19.070312 42.511719-42.507812v-247.601562c0-23.441407-19.070312-42.511719-42.511719-42.511719zm22.511719 42.511719v163.738281l-43.5-32.859375c-11.886719-8.976563-27.960938-9.117188-40-.347656l-55.027344 40.09375-104.9375-108.1875c-12.5-12.890626-32.839844-13.683594-46.304687-1.800782l-93.160157 82.191406v-142.828124c0-12.414063 10.097657-22.511719 22.507813-22.511719h337.910156c12.414063 0 22.511719 10.097656 22.511719 22.511719zm0 247.597656c0 12.414062-10.097656 22.511718-22.507812 22.511718h-337.914063c-10.082031 0-18.640625-6.667968-21.492187-15.824218-.660157-2.113282-1.015626-4.359375-1.015626-6.683594v-78.105469l106.394532-93.863281c5.441406-4.804688 13.660156-4.484375 18.714844.726562l47.359374 48.828126c0 .003906 0 .003906.003907.003906l94.261719 97.183594c1.960937 2.023437 4.566406 3.039062 7.179687 3.039062 2.507813 0 5.019531-.9375 6.960937-2.820312 3.960938-3.847657 4.058594-10.175782.214844-14.140626l-22.625-23.328124 52.742188-38.425782c4.867187-3.546875 11.363281-3.492187 16.167968.136719l55.554688 41.964844zm-429.5-46.707032v-236.109374c0-1.003907.050781-2 .152344-2.976563 1.492187-14.675781 13.925781-26.164063 28.988281-26.164063h122.320313c5.523437 0 10-4.476562 10-10 0-5.523437-4.476563-10-10-10h-122.320313c-27.097656 0-49.140625 22.042969-49.140625 49.140626v220.976562c-12.777344-2.300781-22.5-13.503906-22.5-26.9375v-211.902344c0-29.414062 23.933594-53.347656 53.351562-53.347656h302.21875c13.273438 0 24.371094 9.503906 26.84375 22.070312h-108.453124c-5.523438 0-10 4.476563-10 10 0 5.523438 4.476562 10 10 10h118.96875.011718 5.128906c13.195313 0 24.242188 9.394532 26.800782 21.847657h-313.292969c-23.4375 0-42.507813 19.070312-42.507813 42.511719v164.976562.007812 63.253907c-14.722656-.417969-26.570312-12.523438-26.570312-27.347657zm0 0"/>
        <path d="m388.515625 145.117188c-23.601563 0-42.796875 19.199218-42.796875 42.792968 0 23.597656 19.199219 42.796875 42.796875 42.796875 23.59375 0 42.792969-19.199219 42.792969-42.796875 0-23.59375-19.199219-42.792968-42.792969-42.792968zm0 65.589843c-12.570313 0-22.796875-10.226562-22.796875-22.792969 0-12.570312 10.226562-22.796874 22.796875-22.796874 12.566406 0 22.792969 10.226562 22.792969 22.796874 0 12.566407-10.226563 22.792969-22.792969 22.792969zm0 0"/>
        <path d="m244.730469 56.398438c.25.601562.558593 1.179687.917969 1.722656.363281.546875.78125 1.058594 1.242187 1.519531.460937.457031.96875.878906 1.519531 1.25.539063.359375 1.128906.667969 1.730469.917969.597656.25 1.230469.441406 1.871094.570312.636719.128906 1.296875.191406 1.949219.191406.660156 0 1.308593-.0625 1.960937-.191406.636719-.128906 1.257813-.320312 1.867187-.570312.601563-.25 1.179688-.558594 1.722657-.917969.546875-.371094 1.058593-.792969 1.519531-1.25.46875-.460937.878906-.972656 1.25-1.519531.359375-.542969.667969-1.121094.917969-1.722656.25-.609376.441406-1.238282.570312-1.867188.128907-.652344.191407-1.3125.191407-1.960938 0-.652343-.0625-1.3125-.191407-1.949218-.128906-.640625-.320312-1.273438-.570312-1.871094-.25-.609375-.558594-1.191406-.917969-1.730469-.371094-.550781-.78125-1.058593-1.25-1.519531-.460938-.460938-.972656-.878906-1.519531-1.242188-.542969-.359374-1.121094-.667968-1.722657-.917968-.609374-.25-1.230468-.441406-1.867187-.570313-1.292969-.261719-2.621094-.261719-3.910156 0-.640625.128907-1.273438.320313-1.871094.570313-.601563.25-1.191406.558594-1.730469.917968-.550781.363282-1.058594.78125-1.519531 1.242188s-.878906.96875-1.242187 1.519531c-.359376.539063-.667969 1.121094-.917969 1.730469-.25.597656-.441407 1.230469-.570313 1.871094-.128906.636718-.199218 1.296875-.199218 1.949218 0 .648438.070312 1.308594.199218 1.960938.128906.628906.320313 1.257812.570313 1.867188zm0 0"/>
    </svg>

    <svg id="post_grid" enable-background="new 0 0 24 24" height="20" viewBox="0 0 24 24" width="20"
         xmlns="http://www.w3.org/2000/svg">
        <g>
            <path d="m22.5 6h-21c-.827 0-1.5-.673-1.5-1.5v-3c0-.827.673-1.5 1.5-1.5h21c.827 0 1.5.673 1.5 1.5v3c0 .827-.673 1.5-1.5 1.5zm-21-5c-.275 0-.5.225-.5.5v3c0 .275.225.5.5.5h21c.275 0 .5-.225.5-.5v-3c0-.275-.225-.5-.5-.5z"/>
        </g>
        <g>
            <path d="m22.5 24h-21c-.827 0-1.5-.673-1.5-1.5v-13c0-.827.673-1.5 1.5-1.5h21c.827 0 1.5.673 1.5 1.5v13c0 .827-.673 1.5-1.5 1.5zm-21-15c-.275 0-.5.225-.5.5v13c0 .275.225.5.5.5h21c.275 0 .5-.225.5-.5v-13c0-.275-.225-.5-.5-.5z"/>
        </g>
        <g>
            <path d="m19.503 21h-6.006c-.827 0-1.5-.673-1.5-1.5v-7c0-.827.673-1.5 1.5-1.5h6.006c.827 0 1.5.673 1.5 1.5v7c0 .827-.673 1.5-1.5 1.5zm-6.006-9c-.275 0-.5.225-.5.5v7c0 .275.225.5.5.5h6.006c.275 0 .5-.225.5-.5v-7c0-.275-.225-.5-.5-.5z"/>
        </g>
        <g>
            <path d="m9.497 13h-6c-.276 0-.5-.224-.5-.5s.224-.5.5-.5h6c.276 0 .5.224.5.5s-.224.5-.5.5z"/>
        </g>
        <g>
            <path d="m9.497 16h-6c-.276 0-.5-.224-.5-.5s.224-.5.5-.5h6c.276 0 .5.224.5.5s-.224.5-.5.5z"/>
        </g>
        <g>
            <path d="m9.497 19h-6c-.276 0-.5-.224-.5-.5s.224-.5.5-.5h6c.276 0 .5.224.5.5s-.224.5-.5.5z"/>
        </g>
    </svg>

    <svg id="product_tabs" height="20" viewBox="0 -29 483.1994 483" width="20" xmlns="http://www.w3.org/2000/svg">
        <path d="m482.121094 302.898438c-3.351563-12.214844-13.59375-21.304688-26.121094-23.183594v-183.613282h16c4.417969 0 8-3.582031 8-8v-80c0-4.421874-3.582031-8-8-8h-352c-4.417969 0-8 3.578126-8 8v80c0 4.417969 3.582031 8 8 8h16v160h-8c-19.855469-.046874-39.304688 5.644532-56 16.390626v-40.390626c0-4.421874-3.582031-8-8-8h-56c-4.417969 0-8 3.578126-8 8v184c0 4.417969 3.582031 8 8 8h56c4.417969 0 8-3.582031 8-8v-40.386718c16.699219 10.738281 36.144531 16.429687 56 16.386718h131.359375c9.101563-.015624 18.160156-1.210937 26.953125-3.554687l173.207031-46.398437c17.042969-4.644532 27.140625-22.175782 22.601563-39.25zm-354.121094-286.796876h336v64h-336zm24 80h288v184.988282l-92.847656 24.898437c-3.824219-9.117187-11.625-15.964843-21.160156-18.578125l-107.792969-28.910156c-6.070313-1.597656-12.320313-2.40625-18.597657-2.398438h-47.601562zm-96 312h-40v-168h40zm399.367188-81.410156-173.175782 46.398438c-7.449218 1.988281-15.121094 3-22.832031 3.011718h-131.359375c-19.046875.042969-37.589844-6.136718-52.800781-17.601562l-3.199219-2.398438v-64l3.199219-2.402343c15.210937-11.464844 33.753906-17.648438 52.800781-17.597657h71.601562c4.886719-.003906 9.757813.628907 14.488282 1.878907l107.757812 28.886719c6.367188 1.753906 11.027344 7.210937 11.753906 13.777343.085938.328125.191407.652344.320313.96875-.09375.34375-.164063.691407-.210937 1.046875.007812 1.300782-.167969 2.597656-.527344 3.847656-1.882813 6.972657-8.199219 11.820313-15.421875 11.832032-1.410157.011718-2.808594-.167969-4.167969-.527344l-68-18.234375c-2.789062-.828125-5.808594-.078125-7.886719 1.960937-2.074219 2.039063-2.882812 5.042969-2.105469 7.847657.777344 2.800781 3.015626 4.964843 5.847657 5.640625l68 18.242187c2.714843.714844 5.515625 1.074219 8.328125 1.070313 14.382812-.007813 26.988281-9.628906 30.789062-23.503906.445313-1.605469.746094-3.246094.90625-4.902344l97.527344-26.152344c.695312-.175781 1.449219-.355469 2.160156-.472656 7.964844-1.027344 15.453125 4.007812 17.511719 11.765625.359375 1.351562.539063 2.746093.527344 4.144531.011719 7.242188-4.839844 13.585938-11.832031 15.472656zm0 0"/>
        <path d="m256 128.101562h80c4.417969 0 8-3.582031 8-8 0-4.421874-3.582031-8-8-8h-80c-4.417969 0-8 3.578126-8 8 0 4.417969 3.582031 8 8 8zm0 0"/>
    </svg>

    <svg id="testimonials" xmlns="http://www.w3.org/2000/svg" xmlns:xlink="http://www.w3.org/1999/xlink" x="0px" y="0px"
         viewBox="0 0 512 512" style="enable-background:new 0 0 512 512;" xml:space="preserve" width="20" height="20">
<g>
	<g>
		<path d="M123.856,71.638H105.66c2.737-20.263,13.941-21.281,19.097-21.75c5.151-0.469,9.094-4.787,9.094-9.959V10.004
			c0-2.749-1.132-5.378-3.13-7.267s-4.688-2.868-7.431-2.717C91.68,1.798,54,17.758,54,83.696v52.04
			c0,8.687,7.067,15.754,15.754,15.754h54.103c8.687,0,15.754-7.068,15.753-15.755V87.392
			C139.61,78.705,132.543,71.638,123.856,71.638z M119.611,131.489H74V83.696c0-46.01,20.461-58.86,39.851-62.487v10.514
			c-13.391,4.076-28.803,16.114-28.803,49.915c0,5.523,4.477,10,10,10h24.563V131.489z"/>
	</g>
</g>
        <g>
	<g>
		<path d="M226.091,71.638h-18.197c2.737-20.263,13.941-21.281,19.097-21.75c5.151-0.469,9.094-4.787,9.094-9.959V10.004
			c0-2.749-1.132-5.378-3.13-7.267s-4.69-2.868-7.431-2.717c-31.61,1.778-69.29,17.738-69.29,83.676v52.04
			c0,8.687,7.067,15.754,15.754,15.754h54.103c8.687,0,15.755-7.068,15.754-15.756V87.392
			C241.845,78.705,234.778,71.638,226.091,71.638z M221.845,131.49h-45.611V83.696c0-46.01,20.461-58.86,39.851-62.487v10.514
			c-13.391,4.076-28.803,16.114-28.803,49.915c0,5.523,4.477,10,10,10h24.563V131.49z"/>
	</g>
</g>
        <g>
	<g>
		<path d="M285.07,80.795c-1.86-1.86-4.44-2.93-7.07-2.93s-5.21,1.07-7.07,2.93s-2.93,4.44-2.93,7.07s1.07,5.21,2.93,7.07
			c1.86,1.86,4.44,2.93,7.07,2.93s5.21-1.07,7.07-2.93s2.93-4.44,2.93-7.07S286.93,82.655,285.07,80.795z"/>
	</g>
</g>
        <g>
	<g>
		<path d="M334.267,77.864h-12.601c-5.523,0-10,4.477-10,10s4.477,10,10,10h12.601C421.241,97.864,492,168.623,492,255.597
			c0,74.232-52.648,139.152-125.187,154.365c-4.631,0.972-7.947,5.056-7.947,9.787v58.104l-61.594-61.594
			c-1.875-1.875-4.419-2.929-7.071-2.929H177.733C90.759,413.33,20,342.571,20,255.597c0-26.805,6.843-53.274,19.79-76.548
			c2.686-4.826,0.949-10.915-3.877-13.6c-4.827-2.686-10.916-0.949-13.6,3.877C7.715,195.565,0,225.397,0,255.597
			C0,353.6,79.73,433.33,177.733,433.33h108.326l75.736,75.736c1.913,1.913,4.47,2.929,7.073,2.929c1.288,0,2.588-0.249,3.825-0.762
			c3.736-1.547,6.173-5.193,6.173-9.238v-74.321c36.183-9.376,68.9-30.239,92.807-59.343C497.678,336.674,512,296.638,512,255.597
			C512,157.595,432.27,77.865,334.267,77.864z"/>
	</g>
</g>
        <g>
	<g>
		<path d="M379.064,177.492H132.937c-5.523,0-10,4.477-10,10s4.477,10,10,10h246.126c5.523,0,10.001-4.477,10.001-10
			S384.587,177.492,379.064,177.492z"/>
	</g>
</g>
        <g>
	<g>
		<path d="M379.064,230.825H132.937c-5.523,0-10,4.477-10,10c0,5.523,4.477,10,10,10h246.126c5.523,0,10.001-4.477,10.001-10
			C389.064,235.302,384.587,230.825,379.064,230.825z"/>
	</g>
</g>
        <g>
	<g>
		<path d="M379.064,284.158H132.937c-5.523,0-10,4.478-10,10c0,5.522,4.477,10,10,10h246.126c5.523,0,10.001-4.478,10.001-10
			C389.064,288.636,384.587,284.158,379.064,284.158z"/>
	</g>
</g>
        <g>
	<g>
		<path d="M379.063,337.492H247.871c-5.523,0-10,4.478-10,10c0,5.522,4.477,10,10,10h131.192c5.523,0,10-4.478,10-10
			C389.063,341.97,384.586,337.492,379.063,337.492z"/>
	</g>
</g>
        <g>
	<g>
		<path d="M191.607,337.491h-0.161c-5.523,0-10,4.478-10,10c0,5.522,4.477,10,10,10h0.161c5.523,0,10-4.478,10-10
			C201.607,341.969,197.13,337.491,191.607,337.491z"/>
	</g>
</g>
</svg>

    <svg id="pricing_tables" height="20" viewBox="0 1 511 511.999" width="20">
        <path d="m464.359375 0c-.554687 0-1.105469.0234375-1.660156.0703125-3.269531.2695315-76.378907 6.9804685-103.851563 60.2929685l-99.210937-10.082031c-24.042969-2.441406-47.605469 5.960938-64.640625 23.023438l-171.167969 170.601562c-31.113281 31.167969-31.101563 81.863281.023437 113.015625l131.285157 131.394531c15.769531 15.78125 36.457031 23.683594 57.074219 23.683594 20.332031-.003906 40.597656-7.6875 56.007812-23.082031 7.808594-7.804688 7.816406-20.460938.011719-28.269531-7.800781-7.8125-20.460938-7.816407-28.269531-.015626-15.441407 15.429688-40.808594 15.167969-56.539063-.578124l-131.289063-131.394532c-15.5625-15.574218-15.566406-40.921875-.046874-56.46875l171.171874-170.605468c8.535157-8.546876 20.320313-12.75 32.335938-11.53125l152.109375 15.460937 1.980469 19.4375c-27.707032 10.328125-54.074219 11.976563-54.675782 12.011719-11.011718.59375-19.464843 9.996094-18.886718 21.011718.5625 10.667969 9.386718 18.941407 19.945312 18.941407.355469 0 .710938-.007813 1.066406-.027344 1.28125-.066406 26.863282-1.53125 56.710938-11.082031l9.304688 91.378906c1.222656 11.992188-2.957032 23.757812-11.472657 32.292969l-97.523437 96.09375c-7.863282 7.746093-7.957032 20.40625-.210938 28.269531 7.75 7.863281 20.40625 7.957031 28.269532.207031l97.582031-96.148437c.03125-.03125.0625-.0625.097656-.097656 17.085937-17.070313 25.484375-40.640626 23.035156-64.667969l-10.613281-104.1875c13.445312-7.871094 24.78125-17.144531 33.84375-27.714844 17.304688-20.199219 26.074219-44.621094 26.054688-72.582031v-.796875c0-26.386719-21.464844-47.855469-47.851563-47.855469zm7.871094 48.664062c.015625 22.34375-8.074219 40.472657-24.550781 54.808594l-1.855469-18.222656c-.960938-9.4375-8.425781-16.902344-17.867188-17.863281l-23.1875-2.355469c20.460938-19.53125 54.269531-24.308594 60.308594-25.019531 4.003906.367187 7.152344 3.746093 7.152344 7.84375zm-162.011719 244.21875c-7.804688 7.808594-20.460938 7.808594-28.269531 0-7.808594-7.808593-7.808594-20.464843 0-28.269531 2.132812-2.132812 2.519531-4.605469 2.46875-6.304687-.078125-2.730469-1.269531-5.382813-3.351563-7.460938l-12.246094-12.25c-3.175781-3.175781-7.261718-4.949218-11.503906-4.996094-2.976562-.027343-7.222656.742188-11.085937 4.609376l-3.15625 3.15625c-6.515625 6.511718-6.753907 17.273437-.527344 23.503906l12.953125 12.949218c10.613281 10.613282 16.539062 24.617188 16.695312 39.4375.152344 15.027344-5.640624 29.1875-16.324218 39.867188l-1.472656 1.472656c-10.804688 10.808594-24.722657 16.195313-38.730469 16.195313-11.898438.003906-23.855469-3.898438-34.039063-11.652344l-8.371094 8.078125c-3.878906 3.742188-8.882812 5.601562-13.878906 5.601562-5.234375 0-10.464844-2.042968-14.386718-6.109374-7.667969-7.945313-7.4375-20.601563.507812-28.265626l7.492188-7.230468c-8.429688-9.132813-13.191407-20.757813-13.453126-32.972656-.28125-13.3125 4.792969-25.878907 14.292969-35.378907 7.808594-7.804687 20.464844-7.804687 28.273438 0 7.804687 7.808594 7.804687 20.464844 0 28.273438-1.773438 1.769531-2.644531 3.875-2.59375 6.253906.054687 2.554687 1.195312 5.074219 3.21875 7.09375l21.054687 21.054687c6.59375 6.59375 16.199219 6.929688 22.34375.789063l1.472656-1.476563c3.019532-3.015624 4.65625-6.984374 4.613282-11.179687-.046875-4.296875-1.816406-8.410156-4.984375-11.578125l-12.957031-12.953125c-21.921876-21.925781-21.683594-57.832031.527343-80.046875l3.160157-3.15625c10.535156-10.535156 24.425781-16.316406 39.171874-16.316406h.617188c10.195312.113281 20.011719 2.980468 28.609375 8.242187l8.585937-8.867187c7.683594-7.933594 20.335938-8.136719 28.269532-.457032 7.929687 7.679688 8.132812 20.335938.453125 28.269532l-8.476563 8.753906c5.683594 8.105469 8.898438 17.632812 9.191406 27.574219.394532 13.523437-4.632812 26.21875-14.164062 35.746093zm0 0"/>
    </svg>
    <svg id="product_grid_sidebar" xmlns:xlink="http://www.w3.org/1999/xlink" x="0px" y="0px"
         viewBox="0 0 469.333 469.333" style="enable-background:new 0 0 469.333 469.333;" xml:space="preserve"
         width="20" height="20">
<g>
	<g>
		<g>
			<path d="M426.667,0h-384C19.146,0,0,19.135,0,42.667v384c0,23.531,19.146,42.667,42.667,42.667h384
				c23.521,0,42.667-19.135,42.667-42.667v-384C469.333,19.135,450.188,0,426.667,0z M298.667,448h-256
				c-11.771,0-21.333-9.573-21.333-21.333v-320h277.333V448z M448,426.667c0,11.76-9.563,21.333-21.333,21.333H320V106.667h128
				V426.667z M448,85.333H21.333V42.667c0-11.76,9.563-21.333,21.333-21.333h384c11.771,0,21.333,9.573,21.333,21.333V85.333z"/>
            <circle cx="53.333" cy="53.333" r="10.667"/>
            <circle cx="96" cy="53.333" r="10.667"/>
            <circle cx="138.667" cy="53.333" r="10.667"/>
            <path d="M352,192h64c5.896,0,10.667-4.771,10.667-10.667c0-5.896-4.771-10.667-10.667-10.667h-64
				c-5.896,0-10.667,4.771-10.667,10.667C341.333,187.229,346.104,192,352,192z"/>
            <path d="M352,256h64c5.896,0,10.667-4.771,10.667-10.667c0-5.896-4.771-10.667-10.667-10.667h-64
				c-5.896,0-10.667,4.771-10.667,10.667C341.333,251.229,346.104,256,352,256z"/>
            <path d="M352,320h64c5.896,0,10.667-4.771,10.667-10.667c0-5.896-4.771-10.667-10.667-10.667h-64
				c-5.896,0-10.667,4.771-10.667,10.667C341.333,315.229,346.104,320,352,320z"/>
            <path d="M352,384h42.667c5.896,0,10.667-4.771,10.667-10.667s-4.771-10.667-10.667-10.667H352
				c-5.896,0-10.667,4.771-10.667,10.667S346.104,384,352,384z"/>
		</g>
	</g>
</g>
</svg>

    <svg id="hero_image" xmlns:xlink="http://www.w3.org/1999/xlink" x="0px" y="0px"
         viewBox="0 0 512 512" style="enable-background:new 0 0 512 512;" xml:space="preserve" width="20" height="20">
<g>
	<g>
		<path d="M446.575,0H65.425C29.349,0,0,29.35,0,65.426v381.149C0,482.65,29.349,512,65.425,512h381.15
			C482.651,512,512,482.65,512,446.574V65.426C512,29.35,482.651,0,446.575,0z M481.842,446.575
			c0,19.447-15.821,35.267-35.267,35.267H65.425c-19.447,0-35.268-15.821-35.268-35.267v-55.007l99.255-84.451
			c3.622-3.082,8.906-3.111,12.562-0.075l62.174,51.628c5.995,4.977,14.795,4.569,20.304-0.946L372.181,209.77
			c2.67-2.675,5.783-2.935,7.408-2.852c1.62,0.083,4.695,0.661,7.078,3.596l95.176,117.19V446.575z M481.842,279.865l-71.766-88.366
			c-7.117-8.764-17.666-14.122-28.942-14.701c-11.268-0.57-22.317,3.672-30.294,11.662L212.832,326.681l-51.59-42.839
			c-14.959-12.422-36.563-12.293-51.373,0.308l-79.712,67.822V65.426c0-19.447,15.821-35.268,35.268-35.268h381.15
			c19.447,0,35.267,15.821,35.267,35.268V279.865z"/>
	</g>
</g>
        <g>
	<g>
		<path d="M161.174,62.995c-40.095,0-72.713,32.62-72.713,72.713c0,40.094,32.619,72.713,72.713,72.713s72.713-32.619,72.713-72.713
			S201.269,62.995,161.174,62.995z M161.174,178.264c-23.466,0-42.556-19.091-42.556-42.556c0-23.466,19.09-42.556,42.556-42.556
			c23.466,0,42.556,19.091,42.556,42.556S184.64,178.264,161.174,178.264z"/>
	</g>
</g>
</svg>

    <svg id="three_up_card" x="0px" y="0px" width="20" height="20"
         viewBox="0 0 444.287 444.287" style="enable-background:new 0 0 444.287 444.287;" xml:space="preserve">
<g>
	<path d="M398.636,141.538l-222.328-140c-3.08-1.941-6.975-2.052-10.161-0.292c-3.188,1.76-5.167,5.113-5.167,8.754v42.33
		c0,5.523,4.478,10,10,10s10-4.477,10-10V28.114l202.328,127.406v180.652l-14.672-9.238c-4.671-2.943-10.848-1.539-13.79,3.133
		c-2.943,4.673-1.54,10.848,3.134,13.791l30,18.891c1.624,1.023,3.475,1.538,5.328,1.538c1.662,0,3.326-0.414,4.833-1.246
		c3.188-1.76,5.167-5.113,5.167-8.754V150C403.308,146.564,401.544,143.369,398.636,141.538z"/>
    <path d="M338.636,181.538l-222.328-140c-3.08-1.941-6.974-2.052-10.161-0.292S100.98,46.359,100.98,50v42.33
		c0,5.523,4.478,10,10,10s10-4.477,10-10V68.114l202.328,127.406v180.652l-14.672-9.238c-4.671-2.944-10.848-1.54-13.79,3.133
		c-2.943,4.673-1.54,10.848,3.134,13.791l30,18.891c1.624,1.023,3.475,1.538,5.328,1.538c1.662,0,3.326-0.414,4.833-1.246
		c3.188-1.76,5.167-5.113,5.167-8.754V190C343.308,186.564,341.544,183.369,338.636,181.538z"/>
    <path d="M278.636,221.538l-222.328-140c-3.08-1.942-6.974-2.053-10.161-0.292c-3.188,1.76-5.167,5.113-5.167,8.754v204.287
		c0,3.436,1.764,6.631,4.672,8.462l222.328,140c1.624,1.023,3.475,1.538,5.328,1.538c1.662,0,3.326-0.414,4.833-1.246
		c3.188-1.76,5.167-5.113,5.167-8.754V230C283.308,226.564,281.544,223.369,278.636,221.538z M263.308,416.173L60.98,288.767
		V108.114l202.328,127.406V416.173z"/>
    <path d="M171.815,255.051l36.164,22.772c1.654,1.042,3.497,1.54,5.318,1.54c3.322,0,6.571-1.654,8.472-4.673
		c2.943-4.673,1.54-10.848-3.134-13.791l-36.164-22.772c-4.671-2.944-10.848-1.54-13.79,3.133
		C165.738,245.934,167.142,252.108,171.815,255.051z"/>
    <path d="M105.651,263.388l102.328,64.436c1.654,1.042,3.497,1.54,5.318,1.54c3.322,0,6.571-1.654,8.472-4.673
		c2.943-4.673,1.54-10.848-3.134-13.791l-102.328-64.436c-4.671-2.943-10.848-1.54-13.79,3.133
		C99.574,254.271,100.978,260.445,105.651,263.388z"/>
    <path d="M105.651,213.388l36.164,22.772c1.654,1.042,3.497,1.54,5.318,1.54c3.322,0,6.571-1.654,8.472-4.673
		c2.943-4.673,1.54-10.848-3.134-13.791l-36.164-22.772c-4.671-2.943-10.848-1.54-13.79,3.133
		C99.574,204.271,100.978,210.445,105.651,213.388z"/>
</g>
</svg>

    <svg id="cta_form" enable-background="new 0 0 512 512" height="20" viewBox="0 0 512 512" width="20">
        <g id="XMLID_1096_">
            <g id="XMLID_133_">
                <path id="XMLID_149_"
                      d="m502 0h-492c-5.523 0-10 4.477-10 10v412c0 5.523 4.477 10 10 10h282.757l43.301 75c1.326 2.297 3.51 3.973 6.072 4.659.852.228 1.721.341 2.588.341 1.74 0 3.467-.455 5-1.34l62.65-36.171c4.783-2.761 6.422-8.878 3.66-13.66l-16.644-28.829h102.616c5.522 0 10-4.477 10-10v-412c0-5.523-4.478-10-10-10zm-10 20v60h-472v-60zm-143.622 468.34-51.962-90.001c-1.326-2.297-3.51-3.973-6.072-4.659-.852-.228-1.721-.341-2.588-.341-1.74 0-3.467.455-5 1.34l-16.752 9.672v-111.031l96.154 55.515-16.752 9.672c-4.783 2.761-6.422 8.878-3.66 13.66l51.962 90.001zm39.459-76.34-23.771-41.172 23.092-13.332c3.094-1.786 5-5.087 5-8.66s-1.906-6.874-5-8.66l-10.696-6.176h59.538c5.522 0 10-4.477 10-10v-136c0-5.523-4.478-10-10-10h-135c-5.522 0-10 4.477-10 10s4.478 10 10 10h125v116h-84.179l-80.818-46.66c-3.094-1.786-6.906-1.786-10 0s-5 5.087-5 8.66v38h-160.003v-116h125c5.523 0 10-4.477 10-10s-4.477-10-10-10h-135c-5.523 0-10 4.477-10 10v136c0 5.523 4.477 10 10 10h170.004v78h-226.004v-312h472v312z"/>
                <path id="XMLID_152_"
                      d="m64 60c2.63 0 5.21-1.07 7.07-2.93s2.93-4.44 2.93-7.07-1.07-5.21-2.93-7.07-4.44-2.93-7.07-2.93-5.21 1.07-7.07 2.93-2.93 4.44-2.93 7.07 1.07 5.21 2.93 7.07 4.44 2.93 7.07 2.93z"/>
                <path id="XMLID_153_"
                      d="m112 60c2.63 0 5.21-1.07 7.07-2.93s2.93-4.44 2.93-7.07-1.07-5.21-2.93-7.07-4.44-2.93-7.07-2.93-5.21 1.07-7.07 2.93-2.93 4.44-2.93 7.07 1.07 5.21 2.93 7.07 4.44 2.93 7.07 2.93z"/>
                <path id="XMLID_1077_"
                      d="m160 60c2.63 0 5.21-1.07 7.07-2.93s2.93-4.44 2.93-7.07-1.07-5.21-2.93-7.07-4.44-2.93-7.07-2.93-5.21 1.07-7.07 2.93-2.93 4.44-2.93 7.07 1.07 5.21 2.93 7.07 4.44 2.93 7.07 2.93z"/>
                <path id="XMLID_1087_"
                      d="m256 60h191.5c5.522 0 10-4.477 10-10s-4.478-10-10-10h-191.5c-5.523 0-10 4.477-10 10s4.477 10 10 10z"/>
                <path id="XMLID_1088_"
                      d="m256 178c-2.63 0-5.21 1.07-7.07 2.93s-2.93 4.44-2.93 7.07 1.07 5.21 2.93 7.07 4.44 2.93 7.07 2.93 5.21-1.07 7.069-2.93c1.86-1.86 2.931-4.44 2.931-7.07s-1.07-5.21-2.931-7.07c-1.859-1.86-4.439-2.93-7.069-2.93z"/>
            </g>
        </g>
    </svg>
    <svg id="image_row" xmlns:xlink="http://www.w3.org/1999/xlink" x="0px" y="0px"
         width="20" height="20" viewBox="0 0 316.797 316.797" style="enable-background:new 0 0 316.797 316.797;"
         xml:space="preserve">
<g>
	<path d="M35.1,315.9h201.598c19.354,0,35.1-15.746,35.1-35.1V79.197c0-19.354-15.746-35.101-35.1-35.101H35.1
		C15.747,44.097,0,59.844,0,79.197v201.598C0,300.148,15.747,315.9,35.1,315.9z M16.2,79.197c0-10.423,8.477-18.9,18.9-18.9h201.598
		c10.426,0,18.9,8.478,18.9,18.9v201.598c0,10.426-8.475,18.9-18.9,18.9H35.1c-10.423,0-18.9-8.475-18.9-18.9V79.197z"/>
    <path d="M278.996,286.2c0,2.152,0.854,4.098,2.226,5.548c1.477,1.562,3.555,2.553,5.875,2.553c4.472,0,8.1-3.623,8.1-8.101V57.597
		c0-19.354-15.746-35.1-35.1-35.1H36.898c-4.472,0-8.1,3.623-8.1,8.1c0,1.097,0.221,2.139,0.617,3.091
		c1.213,2.937,4.103,5.01,7.483,5.01h199.8h21.553h1.846c10.42,0,18.899,8.477,18.899,18.899v3.787V286.2z"/>
    <path d="M308.696,272.7c4.472,0,8.101-3.622,8.101-8.1V35.997c0-19.354-15.747-35.1-35.101-35.1H58.498c-4.472,0-8.1,3.623-8.1,8.1
		c0,4.477,3.628,8.1,8.1,8.1h223.198c10.421,0,18.9,8.478,18.9,18.9v228.599C300.597,269.072,304.225,272.7,308.696,272.7z"/>
    <path d="M79.31,155.38h8.467c2.626,0,4.754,2.128,4.754,4.754v54.69c0,2.621,2.125,4.752,4.751,4.752h24.052
		c-0.282-1.149-0.472-2.331-0.472-3.57v-19.454c0-8.3,6.734-15.034,15.04-15.034s15.04,6.734,15.04,15.034v19.454
		c0,1.239-0.189,2.421-0.469,3.57h24.047c2.626,0,4.756-2.131,4.756-4.752v-54.69c0-2.626,2.131-4.754,4.752-4.754h8.464
		c2.626,0,3.375-1.614,1.666-3.612l-55.165-64.528c-1.709-1.994-4.467-1.994-6.173,0l-55.173,64.533
		C75.94,153.766,76.687,155.38,79.31,155.38z"/>
    <path d="M93,273.871c1.294-0.269,2.428-0.77,3.385-1.508c0.846-0.633,1.556-1.419,2.123-2.357c0.891-1.408,1.334-3.001,1.334-4.772
		c0-1.725-0.39-3.186-1.168-4.388c-0.778-1.207-1.933-2.088-3.457-2.647c1.004-0.506,1.767-1.081,2.286-1.703
		c0.923-1.112,1.387-2.578,1.387-4.414c0-1.771-0.458-3.301-1.376-4.571c-1.524-2.073-4.116-3.138-7.765-3.19H75.271v29.958h13.5
		C90.284,274.277,91.697,274.146,93,273.871z M81.243,249.523h6.518c1.432,0,2.613,0.153,3.543,0.47
		c1.073,0.448,1.608,1.366,1.608,2.764c0,1.26-0.406,2.141-1.215,2.631c-0.815,0.496-1.867,0.744-3.164,0.744h-7.285v-6.608H81.243z
		 M81.243,269.078v-7.989h7.377c1.284,0.021,2.283,0.185,2.995,0.506c1.271,0.585,1.906,1.656,1.906,3.217
		c0,1.841-0.656,3.09-1.964,3.744c-0.726,0.348-1.735,0.527-3.035,0.527h-7.28V269.078z"/>
    <path d="M118.476,243.406c-4.282,0-7.554,1.166-9.816,3.497c-3.035,2.742-4.554,6.865-4.554,12.35
		c0,5.379,1.519,9.503,4.554,12.356c2.262,2.336,5.534,3.496,9.816,3.496s7.554-1.171,9.816-3.496
		c3.024-2.854,4.533-6.978,4.533-12.356c0-5.484-1.513-9.607-4.533-12.35C126.03,244.572,122.758,243.406,118.476,243.406z
		 M124.379,267.063c-1.458,1.83-3.425,2.742-5.904,2.742s-4.458-0.912-5.935-2.742c-1.474-1.83-2.212-4.43-2.212-7.805
		s0.738-5.975,2.212-7.8c1.477-1.824,3.457-2.742,5.935-2.742s4.451,0.918,5.904,2.753c1.458,1.835,2.186,4.43,2.186,7.789
		C126.565,262.634,125.837,265.233,124.379,267.063z"/>
    <path d="M150.85,243.406c-4.282,0-7.555,1.166-9.817,3.497c-3.035,2.742-4.553,6.865-4.553,12.35c0,5.379,1.519,9.503,4.553,12.356
		c2.262,2.336,5.535,3.496,9.817,3.496c4.282,0,7.554-1.171,9.816-3.496c3.024-2.854,4.529-6.978,4.529-12.356
		c0-5.484-1.511-9.607-4.529-12.35C158.403,244.572,155.131,243.406,150.85,243.406z M156.756,267.063
		c-1.458,1.83-3.423,2.742-5.901,2.742s-4.461-0.912-5.935-2.742s-2.212-4.43-2.212-7.805s0.738-5.975,2.212-7.8
		c1.474-1.824,3.457-2.742,5.935-2.742s4.451,0.918,5.901,2.753c1.458,1.835,2.188,4.43,2.188,7.789
		C158.938,262.634,158.208,265.233,156.756,267.063z"/>
    <polygon points="187.809,244.319 176.238,256.664 176.238,244.319 170.079,244.319 170.079,274.277 176.238,274.277
		176.238,264.263 179.244,261.204 188.483,274.277 196.53,274.277 183.605,256.638 195.897,244.319 	"/>
</g>
</svg>

    <svg id="feature_grid" enable-background="new 0 0 24 24" height="20" viewBox="0 0 24 24" width="20"
         xmlns="http://www.w3.org/2000/svg">
        <path d="m21.5 24h-19c-1.379 0-2.5-1.122-2.5-2.5v-19c0-1.378 1.121-2.5 2.5-2.5h19c1.379 0 2.5 1.122 2.5 2.5v19c0 1.378-1.121 2.5-2.5 2.5zm-19-23c-.827 0-1.5.673-1.5 1.5v19c0 .827.673 1.5 1.5 1.5h19c.827 0 1.5-.673 1.5-1.5v-19c0-.827-.673-1.5-1.5-1.5z"/>
        <path d="m23.5 18h-23c-.276 0-.5-.224-.5-.5s.224-.5.5-.5h23c.276 0 .5.224.5.5s-.224.5-.5.5z"/>
        <path d="m20.5 21h-17c-.276 0-.5-.224-.5-.5s.224-.5.5-.5h17c.276 0 .5.224.5.5s-.224.5-.5.5z"/>
        <path d="m8.5 22c-.276 0-.5-.224-.5-.5v-2c0-.276.224-.5.5-.5s.5.224.5.5v2c0 .276-.224.5-.5.5z"/>
        <path d="m7 13c-.276 0-.5-.224-.5-.5v-6c0-.276.224-.5.5-.5s.5.224.5.5v6c0 .276-.224.5-.5.5z"/>
        <path d="m12 13h-3c-.276 0-.5-.224-.5-.5v-1c0-1.378 1.121-2.5 2.5-2.5.275 0 .5-.224.5-.5v-1c0-.276-.225-.5-.5-.5h-2c-.276 0-.5-.224-.5-.5s.224-.5.5-.5h2c.827 0 1.5.673 1.5 1.5v1c0 .827-.673 1.5-1.5 1.5s-1.5.673-1.5 1.5v.5h2.5c.276 0 .5.224.5.5s-.224.5-.5.5z"/>
        <path d="m16 13h-2c-.276 0-.5-.224-.5-.5s.224-.5.5-.5h2c.275 0 .5-.224.5-.5v-1c0-.276-.225-.5-.5-.5h-2c-.276 0-.5-.224-.5-.5s.224-.5.5-.5h2c.827 0 1.5.673 1.5 1.5v1c0 .827-.673 1.5-1.5 1.5z"/>
        <path d="m16 10h-2c-.276 0-.5-.224-.5-.5s.224-.5.5-.5h2c.275 0 .5-.224.5-.5v-1c0-.276-.225-.5-.5-.5h-2c-.276 0-.5-.224-.5-.5s.224-.5.5-.5h2c.827 0 1.5.673 1.5 1.5v1c0 .827-.673 1.5-1.5 1.5z"/>
    </svg>

    <svg id="guarantee_list" enable-background="new 0 0 24 24" height="20" viewBox="0 0 24 24" width="20"
         xmlns="http://www.w3.org/2000/svg">
        <path d="m21.5 24h-19c-1.379 0-2.5-1.122-2.5-2.5v-19c0-1.378 1.121-2.5 2.5-2.5h19c1.379 0 2.5 1.122 2.5 2.5v19c0 1.378-1.121 2.5-2.5 2.5zm-19-23c-.827 0-1.5.673-1.5 1.5v19c0 .827.673 1.5 1.5 1.5h19c.827 0 1.5-.673 1.5-1.5v-19c0-.827-.673-1.5-1.5-1.5z"/>
        <path d="m23.5 18h-23c-.276 0-.5-.224-.5-.5s.224-.5.5-.5h23c.276 0 .5.224.5.5s-.224.5-.5.5z"/>
        <path d="m20.5 21h-17c-.276 0-.5-.224-.5-.5s.224-.5.5-.5h17c.276 0 .5.224.5.5s-.224.5-.5.5z"/>
        <path d="m8.5 22c-.276 0-.5-.224-.5-.5v-2c0-.276.224-.5.5-.5s.5.224.5.5v2c0 .276-.224.5-.5.5z"/>
        <path d="m7 13c-.276 0-.5-.224-.5-.5v-6c0-.276.224-.5.5-.5s.5.224.5.5v6c0 .276-.224.5-.5.5z"/>
        <path d="m12 13h-3c-.276 0-.5-.224-.5-.5v-1c0-1.378 1.121-2.5 2.5-2.5.275 0 .5-.224.5-.5v-1c0-.276-.225-.5-.5-.5h-2c-.276 0-.5-.224-.5-.5s.224-.5.5-.5h2c.827 0 1.5.673 1.5 1.5v1c0 .827-.673 1.5-1.5 1.5s-1.5.673-1.5 1.5v.5h2.5c.276 0 .5.224.5.5s-.224.5-.5.5z"/>
        <path d="m16 13h-2c-.276 0-.5-.224-.5-.5s.224-.5.5-.5h2c.275 0 .5-.224.5-.5v-1c0-.276-.225-.5-.5-.5h-2c-.276 0-.5-.224-.5-.5s.224-.5.5-.5h2c.827 0 1.5.673 1.5 1.5v1c0 .827-.673 1.5-1.5 1.5z"/>
        <path d="m16 10h-2c-.276 0-.5-.224-.5-.5s.224-.5.5-.5h2c.275 0 .5-.224.5-.5v-1c0-.276-.225-.5-.5-.5h-2c-.276 0-.5-.224-.5-.5s.224-.5.5-.5h2c.827 0 1.5.673 1.5 1.5v1c0 .827-.673 1.5-1.5 1.5z"/>
    </svg>

    <svg id="hero-menu" enable-background="new 0 0 24 24" height="20" viewBox="0 0 24 24" width="20"
         xmlns="http://www.w3.org/2000/svg">
        <path d="m21.5 24h-19c-1.379 0-2.5-1.122-2.5-2.5v-19c0-1.378 1.121-2.5 2.5-2.5h19c1.379 0 2.5 1.122 2.5 2.5v19c0 1.378-1.121 2.5-2.5 2.5zm-19-23c-.827 0-1.5.673-1.5 1.5v19c0 .827.673 1.5 1.5 1.5h19c.827 0 1.5-.673 1.5-1.5v-19c0-.827-.673-1.5-1.5-1.5z"/>
        <path d="m23.5 18h-23c-.276 0-.5-.224-.5-.5s.224-.5.5-.5h23c.276 0 .5.224.5.5s-.224.5-.5.5z"/>
        <path d="m20.5 21h-17c-.276 0-.5-.224-.5-.5s.224-.5.5-.5h17c.276 0 .5.224.5.5s-.224.5-.5.5z"/>
        <path d="m8.5 22c-.276 0-.5-.224-.5-.5v-2c0-.276.224-.5.5-.5s.5.224.5.5v2c0 .276-.224.5-.5.5z"/>
        <path d="m7 13c-.276 0-.5-.224-.5-.5v-6c0-.276.224-.5.5-.5s.5.224.5.5v6c0 .276-.224.5-.5.5z"/>
        <path d="m12 13h-3c-.276 0-.5-.224-.5-.5v-1c0-1.378 1.121-2.5 2.5-2.5.275 0 .5-.224.5-.5v-1c0-.276-.225-.5-.5-.5h-2c-.276 0-.5-.224-.5-.5s.224-.5.5-.5h2c.827 0 1.5.673 1.5 1.5v1c0 .827-.673 1.5-1.5 1.5s-1.5.673-1.5 1.5v.5h2.5c.276 0 .5.224.5.5s-.224.5-.5.5z"/>
        <path d="m16 13h-2c-.276 0-.5-.224-.5-.5s.224-.5.5-.5h2c.275 0 .5-.224.5-.5v-1c0-.276-.225-.5-.5-.5h-2c-.276 0-.5-.224-.5-.5s.224-.5.5-.5h2c.827 0 1.5.673 1.5 1.5v1c0 .827-.673 1.5-1.5 1.5z"/>
        <path d="m16 10h-2c-.276 0-.5-.224-.5-.5s.224-.5.5-.5h2c.275 0 .5-.224.5-.5v-1c0-.276-.225-.5-.5-.5h-2c-.276 0-.5-.224-.5-.5s.224-.5.5-.5h2c.827 0 1.5.673 1.5 1.5v1c0 .827-.673 1.5-1.5 1.5z"/>
    </svg>

    <svg id="logo_grid" enable-background="new 0 0 24 24" height="20" viewBox="0 0 24 24" width="20"
         xmlns="http://www.w3.org/2000/svg">
        <path d="m21.5 24h-19c-1.379 0-2.5-1.122-2.5-2.5v-19c0-1.378 1.121-2.5 2.5-2.5h19c1.379 0 2.5 1.122 2.5 2.5v19c0 1.378-1.121 2.5-2.5 2.5zm-19-23c-.827 0-1.5.673-1.5 1.5v19c0 .827.673 1.5 1.5 1.5h19c.827 0 1.5-.673 1.5-1.5v-19c0-.827-.673-1.5-1.5-1.5z"/>
        <path d="m23.5 18h-23c-.276 0-.5-.224-.5-.5s.224-.5.5-.5h23c.276 0 .5.224.5.5s-.224.5-.5.5z"/>
        <path d="m20.5 21h-17c-.276 0-.5-.224-.5-.5s.224-.5.5-.5h17c.276 0 .5.224.5.5s-.224.5-.5.5z"/>
        <path d="m8.5 22c-.276 0-.5-.224-.5-.5v-2c0-.276.224-.5.5-.5s.5.224.5.5v2c0 .276-.224.5-.5.5z"/>
        <path d="m7 13c-.276 0-.5-.224-.5-.5v-6c0-.276.224-.5.5-.5s.5.224.5.5v6c0 .276-.224.5-.5.5z"/>
        <path d="m12 13h-3c-.276 0-.5-.224-.5-.5v-1c0-1.378 1.121-2.5 2.5-2.5.275 0 .5-.224.5-.5v-1c0-.276-.225-.5-.5-.5h-2c-.276 0-.5-.224-.5-.5s.224-.5.5-.5h2c.827 0 1.5.673 1.5 1.5v1c0 .827-.673 1.5-1.5 1.5s-1.5.673-1.5 1.5v.5h2.5c.276 0 .5.224.5.5s-.224.5-.5.5z"/>
        <path d="m16 13h-2c-.276 0-.5-.224-.5-.5s.224-.5.5-.5h2c.275 0 .5-.224.5-.5v-1c0-.276-.225-.5-.5-.5h-2c-.276 0-.5-.224-.5-.5s.224-.5.5-.5h2c.827 0 1.5.673 1.5 1.5v1c0 .827-.673 1.5-1.5 1.5z"/>
        <path d="m16 10h-2c-.276 0-.5-.224-.5-.5s.224-.5.5-.5h2c.275 0 .5-.224.5-.5v-1c0-.276-.225-.5-.5-.5h-2c-.276 0-.5-.224-.5-.5s.224-.5.5-.5h2c.827 0 1.5.673 1.5 1.5v1c0 .827-.673 1.5-1.5 1.5z"/>
    </svg>

    <svg id="team_member" enable-background="new 0 0 24 24" height="20" viewBox="0 0 24 24" width="20"
         xmlns="http://www.w3.org/2000/svg">
        <path d="m21.5 24h-19c-1.379 0-2.5-1.122-2.5-2.5v-19c0-1.378 1.121-2.5 2.5-2.5h19c1.379 0 2.5 1.122 2.5 2.5v19c0 1.378-1.121 2.5-2.5 2.5zm-19-23c-.827 0-1.5.673-1.5 1.5v19c0 .827.673 1.5 1.5 1.5h19c.827 0 1.5-.673 1.5-1.5v-19c0-.827-.673-1.5-1.5-1.5z"/>
        <path d="m23.5 18h-23c-.276 0-.5-.224-.5-.5s.224-.5.5-.5h23c.276 0 .5.224.5.5s-.224.5-.5.5z"/>
        <path d="m20.5 21h-17c-.276 0-.5-.224-.5-.5s.224-.5.5-.5h17c.276 0 .5.224.5.5s-.224.5-.5.5z"/>
        <path d="m8.5 22c-.276 0-.5-.224-.5-.5v-2c0-.276.224-.5.5-.5s.5.224.5.5v2c0 .276-.224.5-.5.5z"/>
        <path d="m7 13c-.276 0-.5-.224-.5-.5v-6c0-.276.224-.5.5-.5s.5.224.5.5v6c0 .276-.224.5-.5.5z"/>
        <path d="m12 13h-3c-.276 0-.5-.224-.5-.5v-1c0-1.378 1.121-2.5 2.5-2.5.275 0 .5-.224.5-.5v-1c0-.276-.225-.5-.5-.5h-2c-.276 0-.5-.224-.5-.5s.224-.5.5-.5h2c.827 0 1.5.673 1.5 1.5v1c0 .827-.673 1.5-1.5 1.5s-1.5.673-1.5 1.5v.5h2.5c.276 0 .5.224.5.5s-.224.5-.5.5z"/>
        <path d="m16 13h-2c-.276 0-.5-.224-.5-.5s.224-.5.5-.5h2c.275 0 .5-.224.5-.5v-1c0-.276-.225-.5-.5-.5h-2c-.276 0-.5-.224-.5-.5s.224-.5.5-.5h2c.827 0 1.5.673 1.5 1.5v1c0 .827-.673 1.5-1.5 1.5z"/>
        <path d="m16 10h-2c-.276 0-.5-.224-.5-.5s.224-.5.5-.5h2c.275 0 .5-.224.5-.5v-1c0-.276-.225-.5-.5-.5h-2c-.276 0-.5-.224-.5-.5s.224-.5.5-.5h2c.827 0 1.5.673 1.5 1.5v1c0 .827-.673 1.5-1.5 1.5z"/>
    </svg>

    <svg id="two_up_intro" enable-background="new 0 0 24 24" height="20" viewBox="0 0 24 24" width="20"
         xmlns="http://www.w3.org/2000/svg">
        <path d="m21.5 24h-19c-1.379 0-2.5-1.122-2.5-2.5v-19c0-1.378 1.121-2.5 2.5-2.5h19c1.379 0 2.5 1.122 2.5 2.5v19c0 1.378-1.121 2.5-2.5 2.5zm-19-23c-.827 0-1.5.673-1.5 1.5v19c0 .827.673 1.5 1.5 1.5h19c.827 0 1.5-.673 1.5-1.5v-19c0-.827-.673-1.5-1.5-1.5z"/>
        <path d="m23.5 18h-23c-.276 0-.5-.224-.5-.5s.224-.5.5-.5h23c.276 0 .5.224.5.5s-.224.5-.5.5z"/>
        <path d="m20.5 21h-17c-.276 0-.5-.224-.5-.5s.224-.5.5-.5h17c.276 0 .5.224.5.5s-.224.5-.5.5z"/>
        <path d="m8.5 22c-.276 0-.5-.224-.5-.5v-2c0-.276.224-.5.5-.5s.5.224.5.5v2c0 .276-.224.5-.5.5z"/>
        <path d="m7 13c-.276 0-.5-.224-.5-.5v-6c0-.276.224-.5.5-.5s.5.224.5.5v6c0 .276-.224.5-.5.5z"/>
        <path d="m12 13h-3c-.276 0-.5-.224-.5-.5v-1c0-1.378 1.121-2.5 2.5-2.5.275 0 .5-.224.5-.5v-1c0-.276-.225-.5-.5-.5h-2c-.276 0-.5-.224-.5-.5s.224-.5.5-.5h2c.827 0 1.5.673 1.5 1.5v1c0 .827-.673 1.5-1.5 1.5s-1.5.673-1.5 1.5v.5h2.5c.276 0 .5.224.5.5s-.224.5-.5.5z"/>
        <path d="m16 13h-2c-.276 0-.5-.224-.5-.5s.224-.5.5-.5h2c.275 0 .5-.224.5-.5v-1c0-.276-.225-.5-.5-.5h-2c-.276 0-.5-.224-.5-.5s.224-.5.5-.5h2c.827 0 1.5.673 1.5 1.5v1c0 .827-.673 1.5-1.5 1.5z"/>
        <path d="m16 10h-2c-.276 0-.5-.224-.5-.5s.224-.5.5-.5h2c.275 0 .5-.224.5-.5v-1c0-.276-.225-.5-.5-.5h-2c-.276 0-.5-.224-.5-.5s.224-.5.5-.5h2c.827 0 1.5.673 1.5 1.5v1c0 .827-.673 1.5-1.5 1.5z"/>
    </svg>

    <svg id="two_up_slider" enable-background="new 0 0 24 24" height="20" viewBox="0 0 24 24" width="20"
         xmlns="http://www.w3.org/2000/svg">
        <path d="m21.5 24h-19c-1.379 0-2.5-1.122-2.5-2.5v-19c0-1.378 1.121-2.5 2.5-2.5h19c1.379 0 2.5 1.122 2.5 2.5v19c0 1.378-1.121 2.5-2.5 2.5zm-19-23c-.827 0-1.5.673-1.5 1.5v19c0 .827.673 1.5 1.5 1.5h19c.827 0 1.5-.673 1.5-1.5v-19c0-.827-.673-1.5-1.5-1.5z"/>
        <path d="m23.5 18h-23c-.276 0-.5-.224-.5-.5s.224-.5.5-.5h23c.276 0 .5.224.5.5s-.224.5-.5.5z"/>
        <path d="m20.5 21h-17c-.276 0-.5-.224-.5-.5s.224-.5.5-.5h17c.276 0 .5.224.5.5s-.224.5-.5.5z"/>
        <path d="m8.5 22c-.276 0-.5-.224-.5-.5v-2c0-.276.224-.5.5-.5s.5.224.5.5v2c0 .276-.224.5-.5.5z"/>
        <path d="m7 13c-.276 0-.5-.224-.5-.5v-6c0-.276.224-.5.5-.5s.5.224.5.5v6c0 .276-.224.5-.5.5z"/>
        <path d="m12 13h-3c-.276 0-.5-.224-.5-.5v-1c0-1.378 1.121-2.5 2.5-2.5.275 0 .5-.224.5-.5v-1c0-.276-.225-.5-.5-.5h-2c-.276 0-.5-.224-.5-.5s.224-.5.5-.5h2c.827 0 1.5.673 1.5 1.5v1c0 .827-.673 1.5-1.5 1.5s-1.5.673-1.5 1.5v.5h2.5c.276 0 .5.224.5.5s-.224.5-.5.5z"/>
        <path d="m16 13h-2c-.276 0-.5-.224-.5-.5s.224-.5.5-.5h2c.275 0 .5-.224.5-.5v-1c0-.276-.225-.5-.5-.5h-2c-.276 0-.5-.224-.5-.5s.224-.5.5-.5h2c.827 0 1.5.673 1.5 1.5v1c0 .827-.673 1.5-1.5 1.5z"/>
        <path d="m16 10h-2c-.276 0-.5-.224-.5-.5s.224-.5.5-.5h2c.275 0 .5-.224.5-.5v-1c0-.276-.225-.5-.5-.5h-2c-.276 0-.5-.224-.5-.5s.224-.5.5-.5h2c.827 0 1.5.673 1.5 1.5v1c0 .827-.673 1.5-1.5 1.5z"/>
    </svg>

    <svg id="bottom_cta" enable-background="new 0 0 24 24" height="20" viewBox="0 0 24 24" width="20"
         xmlns="http://www.w3.org/2000/svg">
        <path d="m21.5 24h-19c-1.379 0-2.5-1.122-2.5-2.5v-19c0-1.378 1.121-2.5 2.5-2.5h19c1.379 0 2.5 1.122 2.5 2.5v19c0 1.378-1.121 2.5-2.5 2.5zm-19-23c-.827 0-1.5.673-1.5 1.5v19c0 .827.673 1.5 1.5 1.5h19c.827 0 1.5-.673 1.5-1.5v-19c0-.827-.673-1.5-1.5-1.5z"/>
        <path d="m23.5 18h-23c-.276 0-.5-.224-.5-.5s.224-.5.5-.5h23c.276 0 .5.224.5.5s-.224.5-.5.5z"/>
        <path d="m20.5 21h-17c-.276 0-.5-.224-.5-.5s.224-.5.5-.5h17c.276 0 .5.224.5.5s-.224.5-.5.5z"/>
        <path d="m8.5 22c-.276 0-.5-.224-.5-.5v-2c0-.276.224-.5.5-.5s.5.224.5.5v2c0 .276-.224.5-.5.5z"/>
        <path d="m7 13c-.276 0-.5-.224-.5-.5v-6c0-.276.224-.5.5-.5s.5.224.5.5v6c0 .276-.224.5-.5.5z"/>
        <path d="m12 13h-3c-.276 0-.5-.224-.5-.5v-1c0-1.378 1.121-2.5 2.5-2.5.275 0 .5-.224.5-.5v-1c0-.276-.225-.5-.5-.5h-2c-.276 0-.5-.224-.5-.5s.224-.5.5-.5h2c.827 0 1.5.673 1.5 1.5v1c0 .827-.673 1.5-1.5 1.5s-1.5.673-1.5 1.5v.5h2.5c.276 0 .5.224.5.5s-.224.5-.5.5z"/>
        <path d="m16 13h-2c-.276 0-.5-.224-.5-.5s.224-.5.5-.5h2c.275 0 .5-.224.5-.5v-1c0-.276-.225-.5-.5-.5h-2c-.276 0-.5-.224-.5-.5s.224-.5.5-.5h2c.827 0 1.5.673 1.5 1.5v1c0 .827-.673 1.5-1.5 1.5z"/>
        <path d="m16 10h-2c-.276 0-.5-.224-.5-.5s.224-.5.5-.5h2c.275 0 .5-.224.5-.5v-1c0-.276-.225-.5-.5-.5h-2c-.276 0-.5-.224-.5-.5s.224-.5.5-.5h2c.827 0 1.5.673 1.5 1.5v1c0 .827-.673 1.5-1.5 1.5z"/>
    </svg>

</svg>